<svg width="93" height="40" viewBox="0 0 93 40" fill="none" xmlns="http://www.w3.org/2000/svg"><path d="M12 9.6V30H7.6V9.6h4.2Zm10.3 20.7c-1.6 0-3-.3-4-1-1.2-.6-2-1.5-2.7-2.7a9 9 0 0 1-.9-4.2c0-1.5.3-3 1-4.1a6.8 6.8 0 0 1 2.5-2.8c1.1-.6 2.4-1 4-1 1 0 1.9.2 2.7.5a6.2 6.2 0 0 1 3.8 3.9c.4 1 .6 2 .6 3.4v1.1h-13v-2.6h9c0-.6-.1-1.1-.4-1.6-.3-.5-.6-.8-1.1-1.1-.5-.3-1-.4-1.6-.4-.7 0-1.2.1-1.7.4-.5.3-1 .7-1.2 1.2-.3.5-.4 1-.4 1.7v2.5c0 .7.1 1.4.4 2 .3.5.7.9 1.2 1.2.5.3 1.1.4 1.8.4.5 0 1 0 1.3-.2.4-.1.8-.3 1-.6.3-.2.5-.5.7-1l3.9.3c-.2 1-.6 1.8-1.2 2.5s-1.4 1.2-2.4 1.6a9 9 0 0 1-3.3.6Zm16.7 0c-1.6 0-3-.3-4-1-1.2-.7-2-1.6-2.7-2.8a9 9 0 0 1-.9-4c0-1.6.3-3 1-4.2a6.7 6.7 0 0 1 2.5-2.8c1.2-.6 2.5-1 4-1a8 8 0 0 1 3.5.8 5.8 5.8 0 0 1 3.4 5h-4a3 3 0 0 0-1-1.8c-.4-.4-1-.7-1.8-.7-.7 0-1.2.2-1.7.6-.5.3-.9.8-1.1 1.5-.3.7-.5 1.5-.5 2.5s.2 1.8.4 2.4c.3.7.7 1.3 1.2 1.6.5.4 1 .5 1.7.5.5 0 1 0 1.3-.3.4-.1.7-.4 1-.8l.5-1.4h4c0 1.2-.4 2.2-1 3-.5 1-1.3 1.7-2.3 2.2-1 .4-2.2.7-3.5.7Zm16.4 0c-1.6 0-2.9-.3-4-1-1.1-.6-2-1.6-2.6-2.8a9 9 0 0 1-1-4c0-1.7.4-3 1-4.2a6.7 6.7 0 0 1 2.6-2.8c1.1-.6 2.4-1 4-1 1.5 0 2.9.4 4 1 1.1.7 2 1.6 2.6 2.8.6 1.2.9 2.5.9 4.1a9 9 0 0 1-1 4.1 6.7 6.7 0 0 1-2.5 2.8c-1.1.7-2.5 1-4 1Zm0-3.3c.7 0 1.3-.2 1.8-.6.4-.4.8-1 1-1.6.3-.7.4-1.5.4-2.4 0-.9-.1-1.7-.4-2.4-.2-.7-.6-1.2-1-1.6-.5-.4-1-.6-1.8-.6-.7 0-1.3.2-1.8.6-.5.4-.8 1-1 1.6-.3.7-.4 1.5-.4 2.4 0 .9.1 1.7.3 2.4.3.7.6 1.2 1.1 1.6.5.4 1.1.6 1.8.6Zm10.3 3V14.7h4.2V30h-4.2Zm2-17.2c-.5 0-1-.3-1.5-.7a2 2 0 0 1-.7-1.5c0-.6.2-1 .7-1.5.4-.4 1-.6 1.6-.6.6 0 1.2.2 1.6.6.4.4.7 1 .7 1.5a2 2 0 0 1-.7 1.5c-.4.4-1 .7-1.6.7ZM79 30.2c-1.1 0-2.2-.2-3.1-.8-1-.6-1.7-1.5-2.3-2.7-.5-1.2-.8-2.6-.8-4.3 0-1.8.3-3.2.9-4.4a5.8 5.8 0 0 1 7.5-3c.5.3 1 .6 1.3 1l.9 1.3V9.6h4.3V30h-4.2v-2.4h-.1l-.9 1.2c-.4.4-.8.8-1.4 1-.6.3-1.3.4-2 .4Zm1.4-3.3c.6 0 1.2-.2 1.7-.6.5-.4.8-.9 1-1.6.3-.6.5-1.4.5-2.3 0-1-.2-1.7-.4-2.4-.3-.7-.6-1.2-1.1-1.6-.5-.3-1-.5-1.7-.5s-1.3.2-1.8.6c-.5.3-.8.9-1 1.5a7 7 0 0 0 0 4.7c.2.7.5 1.2 1 1.6.5.4 1 .6 1.8.6Z" fill="black"/></svg>