<svg width="161" height="40" viewBox="0 0 161 40" fill="none" xmlns="http://www.w3.org/2000/svg"><path d="M34.8 30V9.6H39v16.9h8.7V30h-13Zm20.1.3c-1 0-1.8-.2-2.6-.5-.7-.4-1.3-.9-1.8-1.5-.4-.7-.6-1.6-.6-2.6 0-.8.1-1.5.4-2.1.3-.6.8-1 1.3-1.4.5-.3 1.1-.6 1.8-.8a54.8 54.8 0 0 0 5.5-1c.3-.2.4-.4.4-.7v-.1c0-.6-.2-1.1-.6-1.5-.4-.3-1-.5-1.7-.5a3 3 0 0 0-1.8.5c-.4.4-.7.8-.9 1.3l-3.9-.3a5.3 5.3 0 0 1 3.4-4 9.8 9.8 0 0 1 5.7-.3c.8.2 1.5.5 2 1a4.5 4.5 0 0 1 2 3.9V30h-4v-2.1h-.1a4.3 4.3 0 0 1-2.5 2c-.5.3-1.2.4-2 .4Zm1.2-3c.7 0 1.2 0 1.7-.3a3 3 0 0 0 1.1-1c.3-.4.4-1 .4-1.5V23l-.5.3a10 10 0 0 1-1.6.3 236.7 236.7 0 0 0-2.1.5 2 2 0 0 0-.9.6c-.2.3-.3.6-.3 1 0 .6.2 1 .6 1.3.5.3 1 .5 1.6.5Zm15-6.1V30h-4.3V14.7h4v2.7h.2c.4-.9 1-1.6 1.7-2 .8-.6 1.8-.9 3-.9 1 0 2 .3 2.7.7.8.5 1.4 1.2 1.8 2 .5.9.7 1.9.7 3V30h-4.2v-9a3 3 0 0 0-.8-2.2c-.4-.5-1.1-.8-2-.8a3 3 0 0 0-1.5.4l-1 1c-.2.6-.3 1.1-.3 1.8Zm20 9.1c-1.5 0-2.9-.3-4-1s-2-1.6-2.6-2.8a9 9 0 0 1-.9-4c0-1.6.3-3 1-4.2a6.7 6.7 0 0 1 2.5-2.8c1.1-.6 2.5-1 4-1a8 8 0 0 1 3.5.8 5.9 5.9 0 0 1 3.4 5h-4a3 3 0 0 0-1-1.8c-.4-.4-1-.7-1.8-.7-.7 0-1.2.2-1.7.6-.5.3-.9.8-1.2 1.5-.2.7-.4 1.5-.4 2.5s.2 1.8.4 2.4c.3.7.7 1.3 1.2 1.6.5.4 1 .5 1.7.5.5 0 1 0 1.3-.3.4-.1.7-.4 1-.8l.5-1.4h4c-.1 1.2-.4 2.2-1 3-.6 1-1.3 1.7-2.3 2.2-1 .4-2.2.7-3.6.7Zm16.5 0c-1.5 0-2.9-.3-4-1-1.2-.6-2-1.5-2.6-2.7a9 9 0 0 1-1-4.2c0-1.5.4-3 1-4.1a6.8 6.8 0 0 1 2.5-2.8c1.2-.6 2.5-1 4-1 1 0 2 .2 2.8.5A6.2 6.2 0 0 1 114 19c.4 1 .5 2 .5 3.4v1.1h-12.9v-2.6h9c0-.6-.2-1.1-.4-1.6-.3-.5-.7-.8-1.1-1.1-.5-.3-1-.4-1.7-.4-.6 0-1.2.1-1.7.4-.5.3-.9.7-1.1 1.2-.3.5-.5 1-.5 1.7v2.5c0 .7.2 1.4.5 2 .2.5.6.9 1.2 1.2.5.3 1 .4 1.8.4.5 0 .9 0 1.3-.2.4-.1.7-.3 1-.6.3-.2.5-.5.6-1l4 .3c-.2 1-.7 1.8-1.3 2.5-.6.7-1.4 1.2-2.3 1.6a9 9 0 0 1-3.4.6Zm14-20.7V30h-4.2V9.6h4.2ZM125 30V14.7h4.3V30H125Zm2.2-17.2c-.7 0-1.2-.3-1.7-.7a2 2 0 0 1-.6-1.5c0-.6.2-1 .6-1.5.5-.4 1-.6 1.7-.6.6 0 1.1.2 1.6.6.4.4.6 1 .6 1.5a2 2 0 0 1-.6 1.5c-.5.4-1 .7-1.6.7Zm13.6 2v3.1h-9.2v-3.2h9.2Zm-7.1-3.7h4.2v14.2c0 .4 0 .7.2 1l.5.4.7.1a3.6 3.6 0 0 0 1.1-.1l.7 3.1a11.8 11.8 0 0 1-2.3.4c-1 0-2 0-2.7-.4-.8-.3-1.4-.8-1.8-1.5-.4-.6-.6-1.4-.6-2.4V11Zm16.6 19.2c-1.5 0-2.9-.3-4-1-1.1-.6-2-1.5-2.6-2.7a9 9 0 0 1-1-4.2c0-1.5.4-3 1-4.1a6.8 6.8 0 0 1 2.6-2.8c1-.6 2.4-1 3.9-1 1 0 2 .2 2.8.5a6.2 6.2 0 0 1 3.8 3.9c.4 1 .6 2 .6 3.4v1.1h-13v-2.6h9c0-.6-.2-1.1-.4-1.6-.3-.5-.7-.8-1.1-1.1-.5-.3-1-.4-1.7-.4-.6 0-1.2.1-1.7.4-.5.3-.8.7-1.1 1.2-.3.5-.4 1-.4 1.7v2.5c0 .7 0 1.4.4 2 .3.5.7.9 1.2 1.2.5.3 1.1.4 1.8.4.5 0 1 0 1.3-.2.4-.1.7-.3 1-.6.3-.2.5-.5.6-1l4 .3c-.2 1-.6 1.8-1.3 2.5-.6.7-1.4 1.2-2.3 1.6a9 9 0 0 1-3.4.6Z" fill="black"/><path d="m23.1 13.7 3.9-4A10.9 10.9 0 0 0 18.7 6 11.6 11.6 0 0 0 7.3 17.8a11.5 11.5 0 0 0 3.6 8.5l-3.9 4 .3.3c2.2 2.2 4.9 3.4 8 3.4 3.2 0 5.9-1.2 8-3.4 2.3-2.3 3.5-5.1 3.5-8.3a11.5 11.5 0 0 0-3.7-8.6Zm0 0L10.8 26.3l12.3-12.6Z" stroke="black" stroke-width="4" stroke-miterlimit="3"/></svg>