<svg width="115" height="40" viewBox="0 0 115 40" fill="none" xmlns="http://www.w3.org/2000/svg"><path d="M16.9 14.7V18H7.5v-3.2h9.4ZM9.6 30V13.6c0-1 .3-2 .7-2.7.4-.8 1-1.3 1.8-1.7.7-.3 1.6-.5 2.5-.5a9.8 9.8 0 0 1 3 .4l-.7 3.2a5.3 5.3 0 0 0-1.4-.2c-.6 0-1 .1-1.3.4-.2.3-.3.7-.3 1.2V30H9.6Zm9.9 0V14.7h4.1v2.7h.2a3.7 3.7 0 0 1 3.7-2.9 6.4 6.4 0 0 1 1.3.2v3.7l-.9-.1-1-.1c-.6 0-1.1.1-1.6.4a3 3 0 0 0-1.6 2.8V30h-4.2Zm17.7.3c-1.6 0-3-.3-4-1-1.2-.6-2-1.5-2.7-2.7a9 9 0 0 1-.9-4.2c0-1.5.3-3 1-4.1a6.8 6.8 0 0 1 2.5-2.8c1.1-.6 2.4-1 4-1 1 0 1.9.2 2.7.5a6.2 6.2 0 0 1 3.9 3.9c.3 1 .5 2 .5 3.4v1.1H31.3v-2.6h9c0-.6-.2-1.1-.5-1.6-.2-.5-.6-.8-1-1.1-.5-.3-1-.4-1.7-.4-.6 0-1.2.1-1.7.4-.5.3-.9.7-1.2 1.2-.2.5-.4 1-.4 1.7v2.5c0 .7.1 1.4.4 2 .3.5.7.9 1.2 1.2.5.3 1.2.4 1.9.4.4 0 .9 0 1.3-.2.4-.1.7-.3 1-.6.2-.2.5-.5.6-1l4 .3c-.3 1-.7 1.8-1.3 2.5-.6.7-1.4 1.2-2.4 1.6a9 9 0 0 1-3.3.6Zm22.5-11.2-3.9.2a2 2 0 0 0-.4-.9c-.2-.2-.5-.5-.9-.6a3 3 0 0 0-1.3-.3c-.6 0-1.2.2-1.6.4-.5.3-.7.7-.7 1.1 0 .4.2.7.4 1l1.5.6 2.8.5c1.5.3 2.6.8 3.3 1.5.8.7 1.1 1.6 1.1 2.7 0 1-.3 1.8-.9 2.6-.5.8-1.3 1.3-2.4 1.8-1 .4-2.1.6-3.5.6-2 0-3.6-.4-4.8-1.3a5 5 0 0 1-2.1-3.4l4.2-.2c0 .6.4 1 .9 1.4.5.3 1 .4 1.8.4s1.4-.1 1.8-.4c.5-.3.7-.6.7-1.1 0-.4-.1-.7-.5-1-.3-.2-.8-.4-1.4-.5l-2.7-.6a6.3 6.3 0 0 1-3.3-1.5c-.7-.7-1.1-1.7-1.1-2.8 0-1 .3-1.8.8-2.6.5-.7 1.3-1.2 2.3-1.6 1-.4 2-.6 3.4-.6 2 0 3.4.4 4.5 1.3 1.1.8 1.8 1.9 2 3.3Zm9.9 11.2c-1.6 0-3-.3-4-1-1.2-.7-2-1.6-2.6-2.8a9 9 0 0 1-1-4c0-1.6.4-3 1-4.2a6.7 6.7 0 0 1 2.6-2.8c1.1-.6 2.4-1 4-1a8 8 0 0 1 3.5.8 5.8 5.8 0 0 1 3.3 5h-4a3 3 0 0 0-.9-1.8c-.5-.4-1-.7-1.9-.7-.6 0-1.2.2-1.7.6-.5.3-.8.8-1.1 1.5-.3.7-.4 1.5-.4 2.5s.1 1.8.4 2.4c.3.7.6 1.3 1.1 1.6.5.4 1 .5 1.7.5.5 0 1 0 1.3-.3.4-.1.8-.4 1-.8.3-.4.4-.9.5-1.4h4c0 1.2-.4 2.2-1 3-.5 1-1.3 1.7-2.3 2.2-1 .4-2.1.7-3.5.7Zm16.4 0c-1.5 0-2.9-.3-4-1-1.1-.6-2-1.6-2.6-2.8a9 9 0 0 1-.9-4c0-1.7.3-3 1-4.2a6.7 6.7 0 0 1 2.5-2.8c1.1-.6 2.5-1 4-1 1.6 0 3 .4 4 1 1.2.7 2 1.6 2.6 2.8.6 1.2 1 2.5 1 4.1a9 9 0 0 1-1 4.1 6.7 6.7 0 0 1-2.6 2.8c-1 .7-2.4 1-4 1Zm0-3.3c.8 0 1.3-.2 1.8-.6.5-.4.8-1 1-1.6.3-.7.4-1.5.4-2.4 0-.9 0-1.7-.3-2.4s-.6-1.2-1-1.6c-.6-.4-1.1-.6-1.9-.6-.7 0-1.3.2-1.7.6-.5.4-.9 1-1.1 1.6-.3.7-.4 1.5-.4 2.4 0 .9.1 1.7.4 2.4.2.7.6 1.2 1 1.6.5.4 1.1.6 1.8.6Zm14.5-5.8V30h-4.2V14.7h4v2.7h.2c.4-.9 1-1.6 1.7-2 .8-.6 1.8-.9 3-.9 1 0 1.9.3 2.7.7.8.5 1.4 1.2 1.8 2 .5.9.7 1.9.7 3V30H106v-9a3 3 0 0 0-.7-2.2c-.5-.5-1.1-.8-2-.8a3 3 0 0 0-1.5.4c-.4.3-.8.6-1 1-.2.6-.4 1.1-.4 1.8Z" fill="black"/></svg>