<svg width="109" height="40" viewBox="0 0 109 40" fill="none" xmlns="http://www.w3.org/2000/svg"><path d="M7.8 30V9.6h8c1.5 0 2.9.3 4 1a6 6 0 0 1 2.4 2.4c.6 1 .9 2.2.9 3.5 0 1.4-.3 2.6-.9 3.6a6 6 0 0 1-2.5 2.4c-1.1.6-2.4.9-4 .9h-5.1v-3.5H15c.8 0 1.5-.1 2-.4.6-.3 1-.7 1.3-1.2.2-.5.4-1 .4-1.8 0-.6-.2-1.2-.4-1.7-.3-.5-.7-1-1.3-1.2-.5-.3-1.2-.4-2-.4h-3V30H7.9Zm22 .3c-1 0-1.9-.2-2.6-.5-.8-.4-1.4-.9-1.9-1.5-.4-.7-.6-1.6-.6-2.6 0-.8.1-1.5.5-2.1.3-.6.7-1 1.2-1.4l1.9-.8a54.7 54.7 0 0 0 5.5-1c.2-.2.3-.4.3-.7v-.1c0-.6-.2-1.1-.6-1.5-.4-.3-1-.5-1.6-.5a3 3 0 0 0-1.9.5c-.4.4-.7.8-.9 1.3l-3.9-.3a5.3 5.3 0 0 1 3.5-4 9.8 9.8 0 0 1 5.7-.3c.7.2 1.4.5 2 1a4.5 4.5 0 0 1 2 3.9V30h-4v-2.1h-.2a4.3 4.3 0 0 1-2.4 2c-.6.3-1.3.4-2 .4Zm1.2-3c.6 0 1.2 0 1.6-.3a3 3 0 0 0 1.2-1c.2-.4.4-1 .4-1.5V23l-.6.3a10 10 0 0 1-1.6.3 233.3 233.3 0 0 0-2 .5 2 2 0 0 0-1 .6c-.2.3-.3.6-.3 1 0 .6.2 1 .7 1.3.4.3 1 .5 1.6.5ZM45.9 9.7V30h-4.2V9.6h4.2Zm7.6 0V30h-4.2V9.6h4.2Zm7.8 20.7c-1 0-1.9-.2-2.6-.5-.8-.4-1.4-.9-1.9-1.5-.4-.7-.6-1.6-.6-2.6 0-.8.1-1.5.5-2.1.3-.6.7-1 1.2-1.4l1.9-.8a54.7 54.7 0 0 0 5.5-1c.2-.2.3-.4.3-.7v-.1c0-.6-.2-1.1-.6-1.5-.4-.3-1-.5-1.6-.5a3 3 0 0 0-1.9.5c-.4.4-.7.8-.9 1.3l-3.9-.3a5.3 5.3 0 0 1 3.5-4 9.8 9.8 0 0 1 5.7-.3c.7.2 1.4.5 2 1a4.5 4.5 0 0 1 2 3.9V30h-4v-2.1h-.2a4.3 4.3 0 0 1-2.4 2c-.6.3-1.3.4-2 .4Zm1.2-3c.6 0 1.2 0 1.6-.3a3 3 0 0 0 1.2-1c.2-.4.4-1 .4-1.5V23l-.6.3a10 10 0 0 1-1.6.3 233.3 233.3 0 0 0-2 .5 2 2 0 0 0-1 .6c-.2.3-.3.6-.3 1 0 .6.2 1 .7 1.3.4.3 1 .5 1.6.5Zm17.6 3c-1.6 0-3-.3-4-1-1.2-.7-2-1.6-2.7-2.8a9 9 0 0 1-.9-4c0-1.6.3-3 1-4.2a6.7 6.7 0 0 1 2.5-2.8c1.2-.6 2.5-1 4-1a8 8 0 0 1 3.5.8 5.9 5.9 0 0 1 3.4 5h-4a3 3 0 0 0-1-1.8c-.4-.4-1-.7-1.8-.7-.7 0-1.2.2-1.7.6-.5.3-.9.8-1.2 1.5-.2.7-.4 1.5-.4 2.5s.2 1.8.4 2.4c.3.7.7 1.3 1.2 1.6.5.4 1 .5 1.7.5.5 0 1 0 1.3-.3.4-.1.7-.4 1-.8l.5-1.4h4c0 1.2-.4 2.2-1 3-.5 1-1.3 1.7-2.3 2.2-1 .4-2.2.7-3.5.7Zm16.4 0c-1.5 0-2.9-.3-4-1-1.1-.6-2-1.5-2.6-2.7a9 9 0 0 1-1-4.2c0-1.5.4-3 1-4.1a6.8 6.8 0 0 1 2.6-2.8c1-.6 2.4-1 3.9-1 1 0 2 .2 2.8.5A6.2 6.2 0 0 1 103 19c.4 1 .6 2 .6 3.4v1.1h-13v-2.6h9c0-.6-.2-1.1-.4-1.6-.3-.5-.7-.8-1.1-1.1-.5-.3-1-.4-1.7-.4-.6 0-1.2.1-1.7.4-.5.3-.8.7-1.1 1.2-.3.5-.4 1-.4 1.7v2.5c0 .7 0 1.4.4 2 .3.5.7.9 1.2 1.2.5.3 1.1.4 1.8.4.5 0 1 0 1.3-.2.4-.1.7-.3 1-.6.3-.2.5-.5.6-1l4 .3c-.2 1-.6 1.8-1.3 2.5-.6.7-1.4 1.2-2.3 1.6a9 9 0 0 1-3.4.6Z" fill="black"/></svg>