<svg width="137" height="40" viewBox="0 0 137 40" fill="none" xmlns="http://www.w3.org/2000/svg"><path d="M6.8 30V9.6h8c1.5 0 2.9.3 4 1a6 6 0 0 1 2.4 2.4c.6 1 .9 2.2.9 3.5 0 1.4-.3 2.6-.9 3.6a6 6 0 0 1-2.5 2.4c-1.1.6-2.4.9-4 .9H9.6v-3.5H14c.8 0 1.5-.1 2-.4.6-.3 1-.7 1.3-1.2.2-.5.4-1 .4-1.8 0-.6-.2-1.2-.4-1.7-.3-.5-.7-1-1.3-1.2-.5-.3-1.2-.4-2-.4h-3V30H6.9Zm22 .3c-1 0-1.9-.2-2.6-.5-.8-.4-1.4-.9-1.9-1.5-.4-.7-.6-1.6-.6-2.6 0-.8.1-1.5.5-2.1.3-.6.7-1 1.2-1.4l1.9-.8a54.7 54.7 0 0 0 5.5-1c.2-.2.3-.4.3-.7v-.1c0-.6-.2-1.1-.6-1.5-.4-.3-1-.5-1.6-.5a3 3 0 0 0-1.9.5c-.4.4-.7.8-.9 1.3l-3.9-.3a5.3 5.3 0 0 1 3.5-4 9.8 9.8 0 0 1 5.7-.3c.7.2 1.4.5 2 1a4.5 4.5 0 0 1 2 3.9V30h-4v-2.1h-.2a4.3 4.3 0 0 1-2.4 2c-.6.3-1.3.4-2 .4Zm1.2-3c.6 0 1.2 0 1.6-.3a3 3 0 0 0 1.2-1c.2-.4.4-1 .4-1.5V23l-.6.3a10 10 0 0 1-1.6.3 233.3 233.3 0 0 0-2 .5 2 2 0 0 0-1 .6c-.2.3-.3.6-.3 1 0 .6.2 1 .7 1.3.4.3 1 .5 1.6.5ZM44.9 9.7V30h-4.2V9.6h4.2Zm7.6 0V30h-4.2V9.6h4.2ZM63 30.3c-1.6 0-3-.3-4-1-1.2-.6-2-1.5-2.7-2.7a9 9 0 0 1-1-4.2c0-1.5.4-3 1-4.1a6.8 6.8 0 0 1 2.6-2.8c1.1-.6 2.4-1 3.9-1 1 0 2 .2 2.8.5a6.2 6.2 0 0 1 3.8 3.9c.4 1 .6 2 .6 3.4v1.1h-13v-2.6h9c0-.6-.1-1.1-.4-1.6-.3-.5-.6-.8-1.1-1.1-.5-.3-1-.4-1.6-.4-.7 0-1.2.1-1.7.4-.5.3-1 .7-1.2 1.2-.3.5-.4 1-.4 1.7v2.5c0 .7.1 1.4.4 2 .3.5.7.9 1.2 1.2.5.3 1.1.4 1.8.4.5 0 1 0 1.3-.2.4-.1.8-.3 1-.6.3-.2.5-.5.7-1l3.9.3c-.2 1-.6 1.8-1.2 2.5s-1.4 1.2-2.4 1.6a9 9 0 0 1-3.3.6Zm17.9-15.6V18h-9.2v-3.2h9.2Zm-7.1-3.6h4.2v14.2c0 .4 0 .7.2 1l.5.4.7.1a3.6 3.6 0 0 0 1-.1l.7 3.1a12 12 0 0 1-2.3.4c-1 0-1.9 0-2.6-.4-.8-.3-1.4-.8-1.8-1.5-.4-.6-.6-1.4-.6-2.4V11Zm18 3.6V18h-9.4v-3.2h9.4ZM84.5 30V13.6c0-1 .2-2 .6-2.7.5-.8 1-1.3 1.8-1.7.8-.3 1.6-.5 2.6-.5a9.8 9.8 0 0 1 3 .4l-.8 3.2a5.3 5.3 0 0 0-1.3-.2c-.7 0-1 .1-1.3.4-.3.3-.4.7-.4 1.2V30h-4.2Zm9.8 0V14.7h4.3V30h-4.3Zm2.2-17.2c-.7 0-1.2-.3-1.7-.7a2 2 0 0 1-.6-1.5c0-.6.2-1 .6-1.5.5-.4 1-.6 1.7-.6.6 0 1.1.2 1.6.6.4.4.6 1 .6 1.5a2 2 0 0 1-.6 1.5c-.5.4-1 .7-1.6.7Zm18.2 6.3-4 .2a2 2 0 0 0-.3-.9c-.3-.2-.5-.5-1-.6a3 3 0 0 0-1.2-.3c-.6 0-1.2.2-1.6.4-.5.3-.7.7-.7 1.1 0 .4.1.7.4 1l1.5.6 2.8.5c1.5.3 2.6.8 3.3 1.5.7.7 1.1 1.6 1.1 2.7 0 1-.3 1.8-.9 2.6-.6.8-1.4 1.3-2.4 1.8-1 .4-2.2.6-3.5.6-2 0-3.6-.4-4.8-1.3a5 5 0 0 1-2.1-3.4l4.1-.2c.2.6.5 1 1 1.4.4.3 1 .4 1.8.4s1.4-.1 1.8-.4c.5-.3.7-.6.7-1.1 0-.4-.2-.7-.5-1-.3-.2-.8-.4-1.5-.5l-2.6-.6a6.3 6.3 0 0 1-3.3-1.5c-.8-.7-1.1-1.7-1.1-2.8 0-1 .3-1.8.8-2.6.5-.7 1.3-1.2 2.2-1.6 1-.4 2.2-.6 3.5-.6 1.9 0 3.4.4 4.5 1.3 1.1.8 1.8 1.9 2 3.3Zm7.2 2V30h-4.2V9.6h4v7.8h.3c.3-.9.9-1.6 1.6-2.1a5 5 0 0 1 3-.8c1 0 2 .3 2.7.7.8.5 1.4 1.1 1.9 2 .4.9.6 1.9.6 3V30h-4.2v-9a3 3 0 0 0-.7-2.2c-.5-.5-1.2-.8-2-.8-.6 0-1.1.2-1.6.4-.4.3-.8.6-1 1-.3.6-.4 1.1-.4 1.8Z" fill="black"/></svg>