<svg width="211" height="40" viewBox="0 0 211 40" fill="none" xmlns="http://www.w3.org/2000/svg"><path d="M55.7 16.8h-4.3l-.5-1.5a3.8 3.8 0 0 0-2.3-1.9c-.5-.2-1-.2-1.6-.2-1 0-2 .2-2.8.8a5 5 0 0 0-1.8 2.2 9 9 0 0 0-.6 3.6c0 1.5.2 2.7.6 3.7a5 5 0 0 0 1.9 2.2c.7.5 1.6.8 2.7.8l1.6-.3c.5-.1 1-.3 1.3-.6l1-1.1.5-1.5h4.3a7.9 7.9 0 0 1-2.6 5c-.8.8-1.7 1.3-2.7 1.7-1 .4-2.2.6-3.5.6-1.8 0-3.4-.4-4.9-1.3-1.4-.8-2.5-2-3.4-3.5a12 12 0 0 1-1.2-5.7c0-2.2.4-4 1.3-5.6.8-1.6 2-2.8 3.4-3.6a10.4 10.4 0 0 1 8.1-.7 7.5 7.5 0 0 1 4.6 3.8c.5.8.8 1.9 1 3ZM62 30h-4.7l7-20.4H70L77 30h-4.6l-5-15.7H67L62 30Zm-.3-8h10.9v3.4h-11V22Zm17.7 8V9.6h8c1.6 0 2.9.3 4 .9 1 .5 1.9 1.3 2.5 2.3.5 1 .8 2.1.8 3.5 0 1.3-.3 2.5-.9 3.5-.5 1-1.4 1.7-2.5 2.2-1 .5-2.4.8-4 .8H82v-3.5h4.7c.8 0 1.5 0 2-.3.6-.2 1-.6 1.3-1 .2-.5.4-1 .4-1.7s-.2-1.3-.4-1.7c-.3-.5-.7-.8-1.2-1a5 5 0 0 0-2.1-.4h-3V30h-4.2Zm11-9.3 5 9.3h-4.7l-5-9.3h4.7Zm10.9 9.3h-4.6l7-20.4h5.5l7 20.4h-4.6l-5-15.7h-.2L101.3 30Zm-.3-8h10.9v3.4h-11V22Zm28.3-6.5c0-.8-.4-1.4-1-1.9a4 4 0 0 0-2.5-.6c-.7 0-1.3 0-1.8.3-.5.1-.8.4-1 .8a2 2 0 0 0-.5 1.1c0 .4.1.7.3 1 .1.3.4.5.7.7l1 .5 1.3.4 1.8.4 2.4.8c.8.3 1.4.7 2 1.2a5 5 0 0 1 1.7 4c0 1.2-.3 2.3-1 3.2a6 6 0 0 1-2.7 2.1c-1.1.5-2.6.8-4.2.8-1.7 0-3-.3-4.3-.8a6.3 6.3 0 0 1-2.8-2.2c-.7-1-1-2.2-1.1-3.7h4.2c0 .7.2 1.3.5 1.7.4.5.9.8 1.4 1 .6.3 1.3.4 2 .4.8 0 1.4-.1 2-.3a3 3 0 0 0 1.2-1c.3-.3.4-.7.4-1.2s0-.9-.4-1.2a3 3 0 0 0-1.1-.8 12 12 0 0 0-2-.6l-2.1-.5c-1.7-.4-3.1-1.1-4-2-1-.9-1.6-2-1.6-3.6 0-1.2.3-2.3 1-3.2.7-1 1.6-1.6 2.8-2.2 1.1-.5 2.5-.7 4-.7 1.4 0 2.8.2 3.9.7 1.1.6 2 1.3 2.6 2.2.7 1 1 2 1 3.2h-4.1Zm18.3 0c0-.8-.4-1.4-1-1.9a4 4 0 0 0-2.4-.6c-.7 0-1.3 0-1.8.3-.5.1-.9.4-1.1.8a2 2 0 0 0-.4 1.1c0 .4 0 .7.2 1l.7.7 1 .5 1.3.4 1.8.4c1 .2 1.7.5 2.5.8.7.3 1.4.7 2 1.2a5.1 5.1 0 0 1 1.6 4c0 1.2-.3 2.3-1 3.2a6 6 0 0 1-2.6 2.1c-1.2.5-2.6.8-4.3.8-1.6 0-3-.3-4.3-.8a6.3 6.3 0 0 1-2.8-2.2c-.7-1-1-2.2-1-3.7h4.1c0 .7.2 1.3.6 1.7.3.5.8.8 1.4 1 .6.3 1.2.4 2 .4.7 0 1.3-.1 1.9-.3a3 3 0 0 0 1.2-1c.3-.3.5-.7.5-1.2s-.1-.9-.4-1.2a3 3 0 0 0-1.2-.8 12 12 0 0 0-1.9-.6l-2.2-.5c-1.7-.4-3-1.1-4-2-1-.9-1.5-2-1.5-3.6 0-1.2.3-2.3 1-3.2.6-1 1.5-1.6 2.7-2.2 1.2-.5 2.5-.7 4-.7s2.8.2 4 .7c1 .6 2 1.3 2.6 2.2.6 1 1 2 1 3.2h-4.2ZM158 30h-4.6l7-20.4h5.5l7 20.4h-4.5l-5.1-15.7h-.2L158 30Zm-.3-8h10.9v3.4h-11V22Zm18.9-12.4 4.9 15.5h.2l4.9-15.5h4.8l-7 20.4h-5.6l-7-20.4h4.8Zm18 20.4H190l7-20.4h5.6l7 20.4H205l-5.1-15.7h-.2l-5 15.7Zm-.3-8h11v3.4h-11V22Z" fill="black"/><path d="m14 6.2-3.6 6c-1.7 3 .4 6.8 3.8 6.8H29L21.7 6.2c-1.8-3-6-3-7.8 0Z" fill="#060300"/><path d="m22.7 29.3-3.6 6c-1.7 3-6 3-7.7.1L4 22.6h14.7c3.5 0 5.6 3.7 4 6.7Z" fill="#060300"/></svg>