<svg width="137" height="40" viewBox="0 0 137 40" fill="none" xmlns="http://www.w3.org/2000/svg"><path d="M43.8 9.6H49l5.6 13.7h.2l5.6-13.7h5.3V30h-4.1V16.7h-.2L56.2 30h-2.8L48 16.7H48V30h-4.1V9.6Zm28 20.7c-.7 0-1.2-.3-1.7-.7-.5-.5-.7-1-.7-1.7s.2-1.2.7-1.7c.5-.5 1-.7 1.7-.7.6 0 1.2.2 1.7.7.4.5.7 1 .7 1.7 0 .4-.1.8-.4 1.2l-.8.8c-.4.3-.8.4-1.2.4Zm23.9-13.5h-4.4c0-.6-.2-1.1-.4-1.5a3.8 3.8 0 0 0-2.3-1.9c-.5-.2-1-.2-1.6-.2-1.1 0-2 .2-2.8.8a5 5 0 0 0-1.8 2.2 9 9 0 0 0-.7 3.6c0 1.5.3 2.7.7 3.7a5 5 0 0 0 1.8 2.2c.8.5 1.7.8 2.7.8.6 0 1.1-.1 1.6-.3.5-.1 1-.3 1.4-.6l1-1.1.4-1.5h4.4a7.9 7.9 0 0 1-2.6 5c-.8.8-1.7 1.3-2.7 1.7-1 .4-2.2.6-3.5.6-1.9 0-3.5-.4-5-1.3-1.3-.8-2.5-2-3.3-3.5a12 12 0 0 1-1.2-5.7c0-2.2.4-4 1.2-5.6.9-1.6 2-2.8 3.4-3.6 1.5-.8 3-1.2 4.9-1.2 1.1 0 2.2.1 3.2.5a7.5 7.5 0 0 1 4.6 3.8c.5.8.9 1.9 1 3Zm5.5 13.5c-.7 0-1.2-.3-1.7-.7-.5-.5-.7-1-.7-1.7s.2-1.2.7-1.7c.5-.5 1-.7 1.7-.7.6 0 1.2.2 1.7.7.4.5.7 1 .7 1.7 0 .4-.1.8-.4 1.2l-.8.8c-.4.3-.8.4-1.2.4Zm6-.3V9.6h8c1.5 0 2.8.3 4 1a6 6 0 0 1 2.4 2.4c.6 1 .9 2.2.9 3.5 0 1.4-.3 2.6-1 3.6a6 6 0 0 1-2.5 2.4c-1 .6-2.4.9-4 .9h-5v-3.5h4.4c.8 0 1.5-.1 2-.4.5-.3 1-.7 1.2-1.2.3-.5.4-1 .4-1.8 0-.6-.1-1.2-.4-1.7-.3-.5-.7-1-1.2-1.2-.5-.3-1.2-.4-2-.4h-3V30h-4.3Zm19.5.3c-.7 0-1.2-.3-1.7-.7-.5-.5-.7-1-.7-1.7s.2-1.2.7-1.7c.5-.5 1-.7 1.7-.7.6 0 1.2.2 1.7.7.4.5.7 1 .7 1.7 0 .4-.1.8-.4 1.2l-.8.8c-.4.3-.8.4-1.2.4Z" fill="black"/><path d="M13 9A5 5 0 0 0 3 9c0-.7.6-1.2 1.3-1.2.6 0 1.2.5 1.2 1.2v12.5a3.8 3.8 0 0 0 7.5 0V9Z" fill="black"/><path d="M23 14a5 5 0 0 0-10 0c0-.7.6-1.2 1.3-1.2.6 0 1.2.5 1.2 1.2v12.5a3.8 3.8 0 0 0 7.5 0V14Z" fill="black"/><path d="M33 19.6a5 5 0 0 0-10 0c0-.7.6-1.2 1.3-1.2.6 0 1.2.6 1.2 1.3v12.5a3.8 3.8 0 0 0 7.5 0V19.6Z" fill="black"/></svg>