<svg width="97" height="40" viewBox="0 0 97 40" fill="none" xmlns="http://www.w3.org/2000/svg"><path d="M6.8 30V9.6h13.7v3.6H11V18h8.7v3.6H11v4.9h9.4V30H6.8Zm17.1 0V9.6h8c1.6 0 3 .3 4 1a6 6 0 0 1 2.5 2.4c.6 1 .8 2.2.8 3.5 0 1.4-.2 2.6-.8 3.6a6 6 0 0 1-2.6 2.4c-1 .6-2.4.9-4 .9h-5v-3.5H31c.9 0 1.6-.1 2-.4.6-.3 1-.7 1.3-1.2.3-.5.4-1 .4-1.8 0-.6-.1-1.2-.4-1.7-.3-.5-.7-1-1.2-1.2-.6-.3-1.2-.4-2-.4h-3V30H24ZM46.3 9.6V30H42V9.6h4.3ZM61 15.5c0-.8-.4-1.4-1-1.9a4 4 0 0 0-2.4-.6c-.7 0-1.3 0-1.8.3-.5.1-.9.4-1.1.8a2 2 0 0 0-.4 1.1c0 .4 0 .7.2 1l.7.7 1 .5 1.3.4 1.8.4c1 .2 1.7.5 2.5.8.7.3 1.4.7 2 1.2a5 5 0 0 1 1.6 4c0 1.2-.3 2.3-1 3.2a6 6 0 0 1-2.6 2.1c-1.2.5-2.6.8-4.3.8-1.6 0-3-.3-4.3-.8a6.3 6.3 0 0 1-2.8-2.2c-.7-1-1-2.2-1-3.7h4.1c0 .7.2 1.3.6 1.7.3.5.8.8 1.4 1 .6.3 1.2.4 2 .4.7 0 1.4-.1 1.9-.3a3 3 0 0 0 1.3-1c.2-.3.4-.7.4-1.2s-.1-.9-.4-1.2a3 3 0 0 0-1.2-.8 12 12 0 0 0-1.9-.6l-2.2-.5c-1.7-.4-3-1.1-4-2-1-.9-1.5-2-1.5-3.6 0-1.2.3-2.3 1-3.2.6-1 1.5-1.6 2.7-2.2 1.2-.5 2.5-.7 4-.7s2.8.2 4 .7c1 .6 2 1.3 2.6 2.2.6 1 1 2 1 3.2h-4.2Zm7.3-5.9h5.3l5.7 13.7h.2L85 9.6h5.3V30h-4.2V16.7H86L80.7 30h-2.8l-5.3-13.2h-.2V30h-4.2V9.6Z" fill="black"/></svg>