<svg width="155" height="40" viewBox="0 0 155 40" fill="none" xmlns="http://www.w3.org/2000/svg"><path d="M43.3 9.6h4.4V23a7.1 7.1 0 0 1-4 6.5 10 10 0 0 1-4.5.9 10 10 0 0 1-4.4-1 7.1 7.1 0 0 1-3-2.5c-.7-1.2-1-2.5-1-4V9.7H35v12.9c0 .8.1 1.5.5 2 .3.7.8 1.1 1.4 1.5.7.3 1.4.5 2.2.5.8 0 1.6-.2 2.2-.5.6-.4 1-.8 1.4-1.4a4 4 0 0 0 .5-2.1V9.6Zm12 11.6V30h-4.2V14.7h4v2.7h.2c.4-.9 1-1.6 1.7-2 .8-.6 1.8-.9 3-.9 1 0 2 .3 2.7.7.8.5 1.4 1.2 1.8 2 .5.9.7 1.9.7 3V30H61v-9a3 3 0 0 0-.8-2.2c-.4-.5-1.1-.8-2-.8a3 3 0 0 0-1.5.4l-1 1c-.2.6-.3 1.1-.3 1.8ZM71.6 30l-4.1-15.3h4.3L74 25h.2l2.4-10.3H81L83.4 25l2.4-10.2h4.3L85.9 30h-4.4l-2.7-9.6h-.2L76 30h-4.5Zm20.9 0V14.7h4.2V30h-4.2Zm2-17.2c-.6 0-1-.3-1.5-.7a2 2 0 0 1-.7-1.5c0-.6.2-1 .7-1.5.4-.4 1-.6 1.6-.6.6 0 1.1.2 1.6.6.4.4.7 1 .7 1.5a2 2 0 0 1-.7 1.5c-.5.4-1 .7-1.6.7Zm9.8 8.4V30H100V14.7h4v2.7h.2c.3-.9.9-1.6 1.7-2 .8-.6 1.8-.9 2.9-.9 1 0 2 .3 2.8.7.8.5 1.4 1.2 1.8 2 .4.9.7 1.9.7 3V30h-4.3v-9a3 3 0 0 0-.7-2.2c-.5-.5-1.1-.8-2-.8a3 3 0 0 0-1.5.4c-.4.3-.8.6-1 1-.3.6-.4 1.1-.4 1.8Zm20.2 9.1c-1.6 0-3-.3-4.1-1-1.1-.6-2-1.5-2.6-2.7a9 9 0 0 1-1-4.2c0-1.5.4-3 1-4.1a6.8 6.8 0 0 1 2.6-2.8c1-.6 2.4-1 3.9-1 1 0 2 .2 2.8.5a6.2 6.2 0 0 1 3.8 3.9c.4 1 .6 2 .6 3.4v1.1h-13v-2.6h9c0-.6-.2-1.1-.4-1.6-.3-.5-.7-.8-1.1-1.1-.5-.3-1-.4-1.6-.4-.7 0-1.3.1-1.8.4-.4.3-.8.7-1.1 1.2-.3.5-.4 1-.4 1.7v2.5c0 .7.1 1.4.4 2 .3.5.7.9 1.2 1.2.5.3 1.1.4 1.8.4.5 0 1 0 1.3-.2.4-.1.7-.3 1-.6.3-.2.5-.5.7-1l3.9.3c-.2 1-.6 1.8-1.2 2.5-.7.7-1.4 1.2-2.4 1.6a9 9 0 0 1-3.3.6Zm15.4 0c-1.2 0-2.3-.3-3.2-1-1-.5-1.7-1.4-2.2-2.6-.6-1.2-.8-2.6-.8-4.3 0-1.8.2-3.2.8-4.4a5.8 5.8 0 0 1 7.5-3c.6.3 1 .6 1.4 1l.8 1.3h.1V9.6h4.3V30h-4.2v-2.4h-.2l-.8 1.2c-.4.4-.9.8-1.5 1-.5.3-1.2.4-2 .4Zm1.3-3.4c.7 0 1.3-.2 1.7-.6.5-.4.9-.9 1.1-1.6.3-.6.4-1.4.4-2.3 0-1-.1-1.7-.4-2.4-.2-.7-.6-1.2-1-1.6-.5-.3-1.1-.5-1.8-.5s-1.3.2-1.8.6c-.4.3-.8.9-1 1.5-.3.7-.4 1.5-.4 2.4 0 .9.1 1.6.4 2.3.2.7.6 1.2 1 1.6.5.4 1.1.6 1.8.6Z" fill="black"/><path d="M5 14.6v10.6a8.8 8.8 0 1 0 17.6 0V14.6s-5.9.2-5.9 6.6v4a3 3 0 0 1-3 3 3 3 0 0 1-2.8-3V14.6H5Z" fill="black"/><path d="M8.2 12.4a3.2 3.2 0 1 0 0-6.4 3.2 3.2 0 0 0 0 6.4Z" fill="black"/></svg>