<svg width="164" height="40" viewBox="0 0 164 40" fill="none" xmlns="http://www.w3.org/2000/svg"><path d="M58.7 16.8h-4.3l-.5-1.5a3.8 3.8 0 0 0-2.3-1.9c-.5-.2-1-.2-1.6-.2-1 0-2 .2-2.8.8a5 5 0 0 0-1.8 2.2 9 9 0 0 0-.6 3.6c0 1.5.2 2.7.6 3.7a5 5 0 0 0 1.9 2.2c.7.5 1.6.8 2.7.8l1.6-.3c.5-.1 1-.3 1.3-.6l1-1.1.5-1.5h4.3a7.9 7.9 0 0 1-2.6 5c-.8.8-1.7 1.3-2.7 1.7-1 .4-2.2.6-3.5.6-1.8 0-3.4-.4-4.9-1.3-1.4-.8-2.5-2-3.4-3.5a12 12 0 0 1-1.2-5.7c0-2.2.4-4 1.3-5.6.8-1.6 2-2.8 3.4-3.6a10.4 10.4 0 0 1 8.1-.7 7.5 7.5 0 0 1 4.6 3.8c.5.8.8 1.9 1 3Zm7.3 4.4V30h-4.3V9.6H66v7.8h.1c.4-.9 1-1.6 1.7-2.1a5 5 0 0 1 2.9-.8c1 0 2 .3 2.8.7.8.5 1.4 1.1 1.8 2 .5.9.7 1.9.7 3V30h-4.3v-9a3 3 0 0 0-.7-2.2c-.4-.5-1.1-.8-2-.8-.6 0-1 .2-1.5.4-.4.3-.8.6-1 1-.3.6-.4 1.1-.4 1.8ZM79.2 30V14.7h4.3V30h-4.3Zm2.1-17.2c-.6 0-1.1-.3-1.6-.7a2 2 0 0 1-.6-1.5c0-.6.2-1 .6-1.5.5-.4 1-.6 1.6-.6.7 0 1.2.2 1.7.6.4.4.6 1 .6 1.5a2 2 0 0 1-.6 1.5c-.5.4-1 .7-1.7.7Zm9.9 17.5c-1 0-1.8-.2-2.6-.5-.8-.4-1.4-.9-1.8-1.5-.5-.7-.7-1.6-.7-2.6 0-.8.2-1.5.5-2.1.3-.6.7-1 1.3-1.4.5-.3 1.1-.6 1.8-.8a54.7 54.7 0 0 0 5.5-1c.2-.2.4-.4.4-.7v-.1c0-.6-.2-1.1-.6-1.5-.4-.3-1-.5-1.7-.5a3 3 0 0 0-1.8.5c-.5.4-.8.8-1 1.3l-3.8-.3a5.3 5.3 0 0 1 3.4-4 9.8 9.8 0 0 1 5.7-.3c.7.2 1.4.5 2 1a4.5 4.5 0 0 1 2 3.9V30h-4v-2.1h-.1a4.3 4.3 0 0 1-2.5 2c-.6.3-1.2.4-2 .4Zm1.2-3c.6 0 1.2 0 1.7-.3a3 3 0 0 0 1-1c.4-.4.5-1 .5-1.5V23l-.6.3a10 10 0 0 1-1.6.3 233.3 233.3 0 0 0-2 .5 2 2 0 0 0-1 .6l-.2 1c0 .6.2 1 .6 1.3.4.3 1 .5 1.6.5Zm10.8 2.7V9.6h4.2v7.7h.1l.8-1.3 1.4-1c.6-.3 1.3-.5 2.2-.5a5.7 5.7 0 0 1 5.3 3.5c.6 1.2.9 2.6.9 4.4 0 1.7-.3 3.1-.9 4.3-.5 1.2-1.2 2-2.2 2.7-1 .6-2 .8-3.1.8-.9 0-1.6 0-2.1-.4-.6-.2-1-.6-1.4-1l-.9-1.2h-.2V30h-4.1Zm4.1-7.6c0 .9.1 1.7.4 2.3.2.7.6 1.2 1 1.6.6.4 1.1.6 1.8.6s1.3-.2 1.8-.6c.5-.4.8-.9 1-1.6.3-.7.4-1.4.4-2.3 0-1 0-1.7-.3-2.4-.3-.6-.6-1.2-1.1-1.5-.5-.4-1-.6-1.8-.6-.7 0-1.2.2-1.7.5-.5.4-.9 1-1.1 1.6-.3.7-.4 1.5-.4 2.4Zm20.5 7.9c-1.5 0-2.9-.3-4-1-1.1-.6-2-1.5-2.6-2.7a9 9 0 0 1-1-4.2c0-1.5.4-3 1-4.1a6.8 6.8 0 0 1 2.6-2.8c1-.6 2.4-1 3.9-1 1 0 2 .2 2.8.5a6.2 6.2 0 0 1 3.8 3.9c.4 1 .6 2 .6 3.4v1.1h-13v-2.6h9c0-.6-.2-1.1-.4-1.6-.3-.5-.7-.8-1.1-1.1-.5-.3-1-.4-1.7-.4-.6 0-1.2.1-1.7.4-.5.3-.8.7-1.1 1.2-.3.5-.4 1-.4 1.7v2.5c0 .7.1 1.4.4 2 .3.5.7.9 1.2 1.2.5.3 1.1.4 1.8.4.5 0 1 0 1.3-.2.4-.1.7-.3 1-.6.3-.2.5-.5.7-1l3.9.3c-.2 1-.6 1.8-1.3 2.5-.6.7-1.4 1.2-2.3 1.6a9 9 0 0 1-3.3.6Zm14-20.7V30h-4.2V9.6h4.3Zm10.4 20.7c-1.6 0-3-.3-4-1-1.2-.6-2-1.5-2.6-2.7a9 9 0 0 1-1-4.2c0-1.5.3-3 1-4.1a6.8 6.8 0 0 1 2.5-2.8c1.1-.6 2.4-1 4-1 1 0 1.9.2 2.8.5a6.2 6.2 0 0 1 3.8 3.9c.3 1 .5 2 .5 3.4v1.1h-12.9v-2.6h9c0-.6-.2-1.1-.5-1.6-.2-.5-.6-.8-1-1.1-.5-.3-1-.4-1.7-.4-.6 0-1.2.1-1.7.4-.5.3-.9.7-1.2 1.2-.2.5-.4 1-.4 1.7v2.5c0 .7.2 1.4.4 2 .3.5.7.9 1.2 1.2.6.3 1.2.4 1.9.4.5 0 .9 0 1.3-.2.4-.1.7-.3 1-.6.3-.2.5-.5.6-1l4 .3c-.3 1-.7 1.8-1.3 2.5-.6.7-1.4 1.2-2.4 1.6a9 9 0 0 1-3.3.6Z" fill="black"/><path d="m11.5 16.2-1.4-5L5 12.4l1.4 5.1 5.1-1.4Zm0 7.5-5.1-1.3-1.4 5 5.1 1.4 1.4-5Zm6.5 3.8-3.7 3.7L18 35l3.7-3.8-3.7-3.7Zm6.5-3.8 1.4 5.2 5.1-1.4-1.4-5.1-5.1 1.3Zm0-7.5 5.1 1.4 1.4-5.1-5.1-1.4-1.4 5.1ZM18 12.5l3.7-3.8L18 5l-3.7 3.7 3.7 3.8Z" fill="black"/></svg>